<svg aria-hidden="true" style="position:absolute;width:0;height:0;overflow:hidden" xmlns="http://www.w3.org/2000/svg"><defs><symbol id="icon-calendar" viewBox="0 0 32 32"><path  d="M8 1a.997.997 0 0 0-1-1 .997.997 0 0 0-1 1v1H4a4.003 4.003 0 0 0-4 4v2h32V6a4.003 4.003 0 0 0-4-4h-2V1a.997.997 0 0 0-1-1 .997.997 0 0 0-1 1v1H8V1zm24 27V10H0v18a4.003 4.003 0 0 0 4 4h24a4.003 4.003 0 0 0 4-4zM19 14h2a.997.997 0 0 1 1 1v2a.997.997 0 0 1-1 1h-2a.997.997 0 0 1-1-1v-2a.997.997 0 0 1 1-1zm6 0h2a.997.997 0 0 1 1 1v2a.997.997 0 0 1-1 1h-2a.997.997 0 0 1-1-1v-2a.997.997 0 0 1 1-1zM4 21a.997.997 0 0 1 1-1h2a.997.997 0 0 1 1 1v2a.997.997 0 0 1-1 1H5a.997.997 0 0 1-1-1v-2zm7-1h2a.997.997 0 0 1 1 1v2a.997.997 0 0 1-1 1h-2a.997.997 0 0 1-1-1v-2a.997.997 0 0 1 1-1z"/></symbol><symbol id="icon-city" viewBox="0 0 40 32"><path  d="M12.054 6.734c-.6-2.031-2.227-1.809-3.34-.863-2.741 2.532-6.311 7.847-4.026 15.5 1.913 6.483 9.874 10.63 9.874 10.63h-9.28S.49 26.631.062 20.314C-.481 12.328 2.718 7.291 6.43 4.008 9.914.919 13.226.001 13.226.001l6.776 22.2 6.776-22.2s3.312.918 6.796 4.007c3.712 3.283 6.91 8.32 6.368 16.306-.428 6.317-5.22 11.687-5.22 11.687h-9.28s7.96-4.146 9.874-10.63c2.284-7.652-1.285-12.967-4.026-15.5-1.114-.946-2.741-1.169-3.34.863l-7.946 25.06s-5.891-18.583-7.946-25.06h-.002z"/></symbol><symbol id="icon-location" viewBox="0 0 25 32"><path  d="M12.444.444A12.238 12.238 0 0 0 .222 12.666a12.098 12.098 0 0 0 2.462 7.333s.333.439.388.502l9.372 11.053 9.377-11.059c.049-.059.383-.497.383-.497l.001-.003a12.094 12.094 0 0 0 2.461-7.33A12.238 12.238 0 0 0 12.444.443zm0 16.667a4.447 4.447 0 0 1-4.359-5.312 4.448 4.448 0 0 1 3.492-3.492 4.444 4.444 0 1 1 .868 8.803z"/></symbol></defs></svg>